# xmcd
#
# Track frame offsets:
#	183
#	17663
#	31833
#	50095
#	89403
#	103833
#	113560
#	125123
#	137203
#	177505
#	191615
#	214485
#	233958
#	253080
#	266648
#	278838
#	292013
#	306928
#	325263
#	336258
#
# Disc length: 4634 seconds
#
# Revision: 2
# Processed by: cddbd v1.4PL0 Copyright (c) Steve Scherf et al.
# Submitted via: audiograbber 1.82.02
#
DISCID=40121814
DTITLE=Various Artist - Rocking The Blues
DYEAR=1989
DGENRE=Rock
TTITLE0=The Jimi Hendrix Experience - Red House
TTITLE1=Eric Clapton - Blues Power
TTITLE2=John Mayall and Peter Green - Evil Woman Blues
TTITLE3=The Allman Brothers Band - (They Call It) Stormy Monday
TTITLE4=Alexis Korner - I Got My Mojo Working
TTITLE5=Rod Stewart - Good Morning Little School Girl
TTITLE6=Chicken Shack - Unlucky Boy
TTITLE7=J J Cale - Bringing It Back (From Mexico)
TTITLE8=Savoy Brown - Louisiana Blues
TTITLE9=John Mayalls Bluesbreakers - Ramblin' On My Mind
TTITLE10=Eric Clapton - Bell Bottom Blues
TTITLE11=The Allman Brothers Band - Statesboro Blues
TTITLE12=Cream - Crossroads
TTITLE13=Taj Mahal - Six Days On The Road
TTITLE14=Them - Baby Please Don't Go
TTITLE15=J J Cale - Lies
TTITLE16=John Mayall and Eric Clapton - Lonely Years
TTITLE17=Savoy Brown - Highway Blues
TTITLE18=Cream - Outside Woman Blues
TTITLE19=Taj Mahal - Dust My Broom
EXTD=
EXTT0=
EXTT1=
EXTT2=
EXTT3=
EXTT4=
EXTT5=
EXTT6=
EXTT7=
EXTT8=
EXTT9=
EXTT10=
EXTT11=
EXTT12=
EXTT13=
EXTT14=
EXTT15=
EXTT16=
EXTT17=
EXTT18=
EXTT19=
PLAYORDER=
